<svg xmlns="http://www.w3.org/2000/svg" width="1120" height="640" viewBox="0 0 1120 640" role="img" aria-labelledby="title desc">
  <title id="title">Awesome AI Interview 仓库知识地图</title>
  <desc id="desc">连接 LLM、RAG、Agent、Evaluation、Coding Agent、Multimodal、论文和项目的知识地图。</desc>
  <defs>
    <style>
      .bg{fill:#f8fafc}.card{fill:#fff;stroke:#cbd5e1;stroke-width:2}.hub{fill:#0f172a}.title{font:700 28px Arial,"Noto Sans CJK SC",sans-serif;fill:#0f172a}.sub{font:400 15px Arial,"Noto Sans CJK SC",sans-serif;fill:#475569}.label{font:700 18px Arial,"Noto Sans CJK SC",sans-serif;fill:#0f172a}.small{font:400 13px Arial,"Noto Sans CJK SC",sans-serif;fill:#475569}.hubtext{font:700 22px Arial,"Noto Sans CJK SC",sans-serif;fill:#fff}.line{stroke:#64748b;stroke-width:2.2;fill:none}.accent1{fill:#dbeafe}.accent2{fill:#dcfce7}.accent3{fill:#fef3c7}.accent4{fill:#fae8ff}
    </style>
    <marker id="arrow" markerWidth="10" markerHeight="10" refX="8" refY="3" orient="auto" markerUnits="strokeWidth"><path d="M0,0 L8,3 L0,6 Z" fill="#64748b"/></marker>
  </defs>
  <rect class="bg" width="1120" height="640"/>
  <text x="56" y="58" class="title">Awesome AI Interview 知识地图</text>
  <text x="56" y="86" class="sub">面试笔记、examples、论文路线图和简历项目，串成 AI Engineering 体系。</text>
  <rect x="430" y="245" width="260" height="125" rx="16" class="hub"/>
  <text x="560" y="294" text-anchor="middle" class="hubtext">AI Interview Core</text>
  <text x="560" y="326" text-anchor="middle" class="small" fill="#e2e8f0">概念 + 系统设计 + 项目</text>
  <g marker-end="url(#arrow)">
    <path class="line" d="M430 280 C330 250 290 185 255 145"/>
    <path class="line" d="M430 335 C320 370 285 445 245 505"/>
    <path class="line" d="M690 280 C790 250 830 185 865 145"/>
    <path class="line" d="M690 335 C800 370 835 445 875 505"/>
    <path class="line" d="M505 245 C485 190 445 150 390 125"/>
    <path class="line" d="M615 245 C640 190 685 150 740 125"/>
    <path class="line" d="M505 370 C475 430 430 475 370 510"/>
    <path class="line" d="M615 370 C650 430 705 475 770 510"/>
  </g>
  <rect x="70" y="105" width="260" height="92" rx="10" class="card accent1"/>
  <text x="100" y="142" class="label">LLM Fundamentals</text>
  <text x="100" y="170" class="small">Transformer、Attention、inference</text>
  <rect x="70" y="445" width="260" height="92" rx="10" class="card accent2"/>
  <text x="100" y="482" class="label">RAG Engineering</text>
  <text x="100" y="510" class="small">Chunking、Embedding、Retrieval、Eval</text>
  <rect x="790" y="105" width="260" height="92" rx="10" class="card accent3"/>
  <text x="820" y="142" class="label">Agent Systems</text>
  <text x="820" y="170" class="small">Tool Calling、memory、guardrails</text>
  <rect x="790" y="445" width="260" height="112" rx="10" class="card accent4"/>
  <text x="820" y="482" class="label">Resume Projects</text>
  <text x="820" y="510" class="small">可运行 demos</text><text x="820" y="530" class="small">和 talking points</text>
  <rect x="340" y="92" width="230" height="78" rx="10" class="card"/>
  <text x="370" y="126" class="label">Evaluation</text>
  <text x="370" y="150" class="small">Harness、metrics、regression gates</text>
  <rect x="600" y="92" width="230" height="78" rx="10" class="card"/>
  <text x="630" y="126" class="label">Coding Agent</text>
  <text x="630" y="150" class="small">Localize、patch、test、diff</text>
  <rect x="340" y="470" width="230" height="78" rx="10" class="card"/>
  <text x="370" y="504" class="label">Multimodal/VLM</text>
  <text x="370" y="528" class="small">Images、PDFs、UI screenshots</text>
  <rect x="600" y="470" width="230" height="96" rx="10" class="card"/>
  <text x="630" y="504" class="label">Papers &amp; Repos</text>
  <text x="630" y="528" class="small">论文路线图</text><text x="630" y="548" class="small">和 high-star projects</text>
</svg>
